<svg xmlns="http://www.w3.org/2000/svg" width="85.308" height="85.308" viewBox="0 0 85.308 85.308">
  <g id="Group_166" data-name="Group 166" transform="translate(-1285.52 53.631) rotate(-45)">
    <path id="Path_361" data-name="Path 361" d="M24.923,0A24.923,24.923,0,0,1,49.846,24.923c0,13.765-24.032,47.8-24.923,45.789S0,38.688,0,24.923A24.923,24.923,0,0,1,24.923,0Z" transform="translate(922 896)" fill="rgba(51,101,138,0.5)"/>
    <g id="bicycle-svgrepo-com" transform="translate(924.893 910.26)">
      <path id="Path_334" data-name="Path 334" d="M8.789,196.426a8.789,8.789,0,1,1,8.789-8.789A8.8,8.8,0,0,1,8.789,196.426Zm0-15.581a6.792,6.792,0,1,0,6.792,6.792A6.8,6.8,0,0,0,8.789,180.845Z" transform="translate(0 -171.521)" fill="#777b7f"/>
      <path id="Path_335" data-name="Path 335" d="M289.449,196.426a8.789,8.789,0,1,1,8.789-8.789A8.8,8.8,0,0,1,289.449,196.426Zm0-15.581a6.792,6.792,0,1,0,6.792,6.792A6.8,6.8,0,0,0,289.449,180.845Z" transform="translate(-253.968 -171.521)" fill="#777b7f"/>
      <path id="Path_336" data-name="Path 336" d="M123,117.928a.714.714,0,0,1-1.348.327l-5.393-10.464-5.369,8.378-1.2-.769,5.307-8.282H104.183l4.189,8.21-1.271.649-4.15-8.134-5.827,9.026-1.2-.773,6.276-9.722-1.8-3.523,1.271-.649,1.779,3.488h11.72l-1.462-2.837a.713.713,0,0,1,.173-.872.735.735,0,0,1,.478-.168h4.529l.673.051a2.262,2.262,0,0,1,2.3,2.2,2.328,2.328,0,0,1-2.337,2.323h-.787a.713.713,0,1,1,0-1.427h.839a.859.859,0,0,0,.856-.917.92.92,0,0,0-.884-.849l-.664.049h-3.376l7.4,14.362A.7.7,0,0,1,123,117.928Z" transform="translate(-86.803 -101.813)" fill="#45678a"/>
      <path id="Path_337" data-name="Path 337" d="M126.118,103.244h-5.239a.713.713,0,0,1,0-1.427h5.239a.713.713,0,1,1,0,1.427Z" transform="translate(-108.738 -101.817)" fill="#f6ae2d"/>
      <path id="Path_338" data-name="Path 338" d="M85.625,239.145a.713.713,0,0,1-.044-1.425l13.306-.834a.713.713,0,1,1,.089,1.424l-13.306.834Z" transform="translate(-76.836 -224.038)" fill="#2e383b"/>
      <path id="Path_339" data-name="Path 339" d="M98.932,284.127h-.045l-13.306-.834a.713.713,0,0,1,.089-1.424l13.306.834a.713.713,0,0,1-.044,1.425Z" transform="translate(-76.837 -264.742)" fill="#2e383b"/>
      <path id="Path_340" data-name="Path 340" d="M332.067,104.062A2.367,2.367,0,0,1,329.7,106.4h-.772a.712.712,0,0,1-.5-.208.764.764,0,0,1-.218-.523.747.747,0,0,1,.741-.724h.839a.8.8,0,0,0,.814-.889.864.864,0,0,0-.856-.816h-.662v-1.427h.692A2.265,2.265,0,0,1,332.067,104.062Z" transform="translate(-296.99 -101.812)" fill="#f6ae2d"/>
      <path id="Path_341" data-name="Path 341" d="M201.215,243.424a3.269,3.269,0,1,1,3.269-3.269A3.273,3.273,0,0,1,201.215,243.424Zm0-5.112a1.843,1.843,0,1,0,1.843,1.843A1.845,1.845,0,0,0,201.215,238.311Z" transform="translate(-179.12 -224.039)" fill="#f6ae2d"/>
      <path id="Path_342" data-name="Path 342" d="M69.244,250.527a2.435,2.435,0,1,1,2.435-2.435A2.438,2.438,0,0,1,69.244,250.527Zm0-3.444a1.008,1.008,0,1,0,1.009,1.008A1.01,1.01,0,0,0,69.244,247.084Z" transform="translate(-60.455 -231.977)" fill="#f6ae2d"/>
      <path id="Path_343" data-name="Path 343" d="M212.521,269.209a.714.714,0,0,1-.682-.923l1.237-4.027a.713.713,0,1,1,1.364.419l-1.237,4.028A.714.714,0,0,1,212.521,269.209Z" transform="translate(-191.664 -248.353)" fill="#45678a"/>
    </g>
  </g>
</svg>
