<svg xmlns="http://www.w3.org/2000/svg" width="49.532" height="70.351" viewBox="0 0 49.532 70.351">
  <g id="Group_167" data-name="Group 167" transform="translate(3261 225)">
    <path id="Path_362" data-name="Path 362" d="M24.766,0A24.766,24.766,0,0,1,49.532,24.766c0,13.678-23.88,47.5-24.766,45.5S0,38.444,0,24.766A24.766,24.766,0,0,1,24.766,0Z" transform="translate(-3261 -225)" fill="rgba(51,101,138,0.5)"/>
    <g id="sailboat-svgrepo-com" transform="translate(-3251.601 -221.753)">
      <path id="Path_327" data-name="Path 327" d="M205.249,35.5l11.318,21.1H205.249Z" transform="translate(-189.327 -32.094)" fill="#33658a"/>
      <path id="Path_328" data-name="Path 328" d="M199.185,29.575h-1.439V.719A.719.719,0,0,1,198.465,0h0a.719.719,0,0,1,.719.719Z" transform="translate(-182.544)" fill="#faac42"/>
      <path id="Path_329" data-name="Path 329" d="M58.729,7.5V32.054H45.559Z" transform="translate(-44.954 -6.78)" fill="#33658a"/>
      <path id="Path_330" data-name="Path 330" d="M119.911,298.319l.718,2.3-17.453,1.033-.016-.275v-2.063Z" transform="translate(-97.03 -269.705)" fill="#777b7f"/>
      <path id="Path_331" data-name="Path 331" d="M70.038,317.829l-5.02,7.833H41.231l-1.982-6.011,6.146-.364,17.453-1.033Z" transform="translate(-39.249 -287.344)" fill="#f6ae2d"/>
      <path id="Path_332" data-name="Path 332" d="M141.868,338.641a.719.719,0,0,1-.042-1.438l13.73-.813a.719.719,0,1,1,.085,1.436l-13.73.813Z" transform="translate(-131.376 -304.125)" fill="#f69b16"/>
      <path id="Path_333" data-name="Path 333" d="M307.677,336.148a.7.7,0,0,1-.141-.014.7.7,0,0,1-.258-.107.7.7,0,0,1-.109-.09.657.657,0,0,1-.089-.109.612.612,0,0,1-.066-.124.686.686,0,0,1-.041-.134.7.7,0,0,1-.014-.141.694.694,0,0,1,.014-.14.67.67,0,0,1,.041-.135.616.616,0,0,1,.066-.124.653.653,0,0,1,.089-.109.707.707,0,0,1,.109-.09.725.725,0,0,1,.124-.066.74.74,0,0,1,.134-.04.7.7,0,0,1,.282,0,.74.74,0,0,1,.134.04.725.725,0,0,1,.124.066.715.715,0,0,1,.109.09.705.705,0,0,1,.09.109.72.72,0,0,1,.066.124.731.731,0,0,1,.04.135.679.679,0,0,1,.014.14.7.7,0,0,1-.014.141.744.744,0,0,1-.04.134.73.73,0,0,1-.066.124.716.716,0,0,1-.09.109.7.7,0,0,1-.109.09.731.731,0,0,1-.124.066.747.747,0,0,1-.134.04A.7.7,0,0,1,307.677,336.148Z" transform="translate(-281.28 -302.605)" fill="#ddb74b"/>
    </g>
  </g>
</svg>
