<svg xmlns="http://www.w3.org/2000/svg" width="106.152" height="150.77" viewBox="0 0 106.152 150.77">
  <g id="Group_171" data-name="Group 171" transform="translate(3101 225)">
    <path id="Path_363" data-name="Path 363" d="M53.076,0a53.076,53.076,0,0,1,53.076,53.076c0,29.313-51.178,101.787-53.076,97.512S0,82.389,0,53.076A53.076,53.076,0,0,1,53.076,0Z" transform="translate(-3101 -225)" fill="rgba(51,101,138,0.5)"/>
    <g id="bicycle-svgrepo-com_1_" data-name="bicycle-svgrepo-com (1)" transform="translate(-3077.479 -201.303)">
      <rect id="Rectangle_1133" data-name="Rectangle 1133" width="8.135" height="2.906" transform="translate(35.825 39.354)" fill="#f6ae2d"/>
      <path id="Path_344" data-name="Path 344" d="M148.354,308.147h-6.682v-2.906H146.9v-12.76h2.906v14.212A1.453,1.453,0,0,1,148.354,308.147Z" transform="translate(-126.555 -249.024)" fill="#f6ae2d"/>
      <path id="Path_345" data-name="Path 345" d="M210.072,66.15a1.453,1.453,0,0,1-1.453-1.453V54.488a1.453,1.453,0,0,1,2.906,0V64.7A1.453,1.453,0,0,1,210.072,66.15Z" transform="translate(-180.533 -42.761)" fill="#416f90"/>
      <path id="Path_346" data-name="Path 346" d="M89.609,9.877H83.255a1.452,1.452,0,0,1-1.209-.647l-2.8-4.2H63.634V2.127H80.025a1.452,1.452,0,0,1,1.209.647l2.8,4.2h5.576V9.877Z" transform="translate(-63.634 -1.715)" fill="#416f90"/>
      <path id="Path_347" data-name="Path 347" d="M240.871,9.877h-6.354V6.972h5.577l2.8-4.2a1.453,1.453,0,0,1,1.209-.647h16.391V5.033H244.878l-2.8,4.2A1.452,1.452,0,0,1,240.871,9.877Z" transform="translate(-201.414 -1.715)" fill="#416f90"/>
      <circle id="Ellipse_255" data-name="Ellipse 255" cx="6.709" cy="6.709" r="6.709" transform="translate(22.829 0)" fill="#2e383b"/>
      <circle id="Ellipse_256" data-name="Ellipse 256" cx="3.39" cy="3.39" r="3.39" transform="translate(26.149 3.319)" fill="#f6ae2d"/>
      <g id="Group_116" data-name="Group 116" transform="translate(2.431 1.504)">
        <path id="Path_348" data-name="Path 348" d="M82.738,13.841H76.184V11.71h5.805l1.42-3.946,2.005.722-1.674,4.651A1.066,1.066,0,0,1,82.738,13.841Z" transform="translate(-76.184 -7.764)" fill="#f6ae2d"/>
        <path id="Path_349" data-name="Path 349" d="M317.636,13.841h-6.554a1.065,1.065,0,0,1-1-.7l-1.674-4.651,2.005-.722,1.42,3.946h5.805v2.131Z" transform="translate(-263.421 -7.764)" fill="#f6ae2d"/>
      </g>
      <path id="Path_350" data-name="Path 350" d="M185.6,175.243H181a1.453,1.453,0,1,1,0-2.906h3.149V152.663a6.286,6.286,0,1,0-12.573,0v19.674h3.149a1.453,1.453,0,1,1,0,2.906h-4.6a1.453,1.453,0,0,1-1.453-1.453V152.663a9.192,9.192,0,1,1,18.384,0V173.79A1.453,1.453,0,0,1,185.6,175.243Z" transform="translate(-148.32 -122.739)" fill="#416f90"/>
      <path id="Path_351" data-name="Path 351" d="M200.8,115.283H197.9v-6.641h-3.874v6.641h-2.906V107.19a1.453,1.453,0,0,1,1.453-1.453h6.78a1.453,1.453,0,0,1,1.453,1.453Z" transform="translate(-166.423 -88.899)" fill="#416f90"/>
      <rect id="Rectangle_1134" data-name="Rectangle 1134" width="13.072" height="2.906" transform="translate(46.005 0.412)" fill="#f6ae2d"/>
      <rect id="Rectangle_1135" data-name="Rectangle 1135" width="13.072" height="2.906" transform="translate(0 0.412)" fill="#f6ae2d"/>
      <path id="Path_352" data-name="Path 352" d="M197.416,218.966a4.5,4.5,0,0,1-4.494-4.494V172.22a4.494,4.494,0,1,1,8.987,0v42.253A4.5,4.5,0,0,1,197.416,218.966Z" transform="translate(-167.877 -148.435)" fill="#718286"/>
    </g>
  </g>
</svg>
