<svg xmlns="http://www.w3.org/2000/svg" width="106.15" height="150.77" viewBox="0 0 106.15 150.77">
  <g id="Group_169" data-name="Group 169" transform="translate(3431 225)">
    <path id="Path_361" data-name="Path 361" d="M53.075,0A53.076,53.076,0,0,1,106.15,53.076c0,29.313-51.177,101.787-53.075,97.512S0,82.389,0,53.076A53.076,53.076,0,0,1,53.075,0Z" transform="translate(-3431 -225)" fill="rgba(51,101,138,0.5)"/>
    <g id="bicycle-svgrepo-com" transform="translate(-3423.053 -191.545)">
      <path id="Path_334" data-name="Path 334" d="M18.007,214.862a18.007,18.007,0,1,1,18.007-18.007A18.028,18.028,0,0,1,18.007,214.862Zm0-31.922a13.915,13.915,0,1,0,13.915,13.915A13.931,13.931,0,0,0,18.007,182.94Z" transform="translate(0 -163.837)" fill="#777b7f"/>
      <path id="Path_335" data-name="Path 335" d="M298.667,214.862a18.007,18.007,0,1,1,18.007-18.007A18.028,18.028,0,0,1,298.667,214.862Zm0-31.922a13.915,13.915,0,1,0,13.915,13.915A13.931,13.931,0,0,0,298.667,182.94Z" transform="translate(-225.972 -163.837)" fill="#777b7f"/>
      <path id="Path_336" data-name="Path 336" d="M151.392,134.829a1.462,1.462,0,0,1-2.761.67l-11.05-21.44-11,17.165-2.459-1.576,10.873-16.968H112.843l8.583,16.822-2.6,1.329-8.5-16.666L98.381,132.659l-2.455-1.584,12.859-19.918-3.683-7.217,2.6-1.329,3.646,7.147h24.012l-2.995-5.813a1.462,1.462,0,0,1,.355-1.787,1.506,1.506,0,0,1,.98-.345h9.279l1.38.1a4.634,4.634,0,0,1,4.719,4.5,4.769,4.769,0,0,1-4.788,4.76h-1.611a1.461,1.461,0,1,1,0-2.923H144.4a1.759,1.759,0,0,0,1.754-1.878,1.885,1.885,0,0,0-1.811-1.74l-1.361.1h-6.918l15.164,29.425A1.444,1.444,0,0,1,151.392,134.829Z" transform="translate(-77.234 -101.813)" fill="#45678a"/>
      <path id="Path_337" data-name="Path 337" d="M132.361,104.74H121.627a1.461,1.461,0,0,1,0-2.923h10.733a1.461,1.461,0,1,1,0,2.923Z" transform="translate(-96.751 -101.816)" fill="#f6ae2d"/>
      <path id="Path_338" data-name="Path 338" d="M86.372,241.517a1.462,1.462,0,0,1-.09-2.92l27.262-1.709a1.461,1.461,0,0,1,.183,2.917l-27.262,1.709Z" transform="translate(-68.366 -210.565)" fill="#2e383b"/>
      <path id="Path_339" data-name="Path 339" d="M113.637,286.5l-.093,0-27.262-1.709a1.461,1.461,0,1,1,.183-2.917l27.262,1.709a1.461,1.461,0,0,1-.09,2.92Z" transform="translate(-68.367 -246.782)" fill="#2e383b"/>
      <path id="Path_340" data-name="Path 340" d="M336.119,106.421a4.85,4.85,0,0,1-4.854,4.788h-1.582a1.458,1.458,0,0,1-1.033-.427,1.565,1.565,0,0,1-.447-1.072,1.531,1.531,0,0,1,1.518-1.484h1.719a1.645,1.645,0,0,0,1.667-1.821,1.769,1.769,0,0,0-1.753-1.671H330v-2.923h1.419A4.64,4.64,0,0,1,336.119,106.421Z" transform="translate(-264.252 -101.812)" fill="#f6ae2d"/>
      <path id="Path_341" data-name="Path 341" d="M204.645,250.282a6.7,6.7,0,1,1,6.7-6.7A6.706,6.706,0,0,1,204.645,250.282Zm0-10.474a3.776,3.776,0,1,0,3.776,3.776A3.78,3.78,0,0,0,204.645,239.808Z" transform="translate(-159.375 -210.565)" fill="#f6ae2d"/>
      <path id="Path_342" data-name="Path 342" d="M71.8,255.635a4.989,4.989,0,1,1,4.989-4.989A4.995,4.995,0,0,1,71.8,255.635Zm0-7.055a2.066,2.066,0,1,0,2.066,2.066A2.068,2.068,0,0,0,71.8,248.58Z" transform="translate(-53.791 -217.628)" fill="#f6ae2d"/>
      <path id="Path_343" data-name="Path 343" d="M213.27,274.931a1.462,1.462,0,0,1-1.4-1.891l2.535-8.251a1.461,1.461,0,1,1,2.794.858l-2.535,8.253A1.462,1.462,0,0,1,213.27,274.931Z" transform="translate(-170.536 -232.199)" fill="#45678a"/>
    </g>
  </g>
</svg>
