<svg xmlns="http://www.w3.org/2000/svg" width="106.152" height="150.77" viewBox="0 0 106.152 150.77">
  <g id="Group_170" data-name="Group 170" transform="translate(3258 225)">
    <path id="Path_362" data-name="Path 362" d="M53.076,0a53.076,53.076,0,0,1,53.076,53.076c0,29.313-51.178,101.787-53.076,97.512S0,82.389,0,53.076A53.076,53.076,0,0,1,53.076,0Z" transform="translate(-3258 -225)" fill="rgba(51,101,138,0.5)"/>
    <g id="sailboat-svgrepo-com" transform="translate(-3237.023 -215.242)">
      <path id="Path_327" data-name="Path 327" d="M205.249,35.5l25.693,47.9H205.249Z" transform="translate(-169.105 -27.77)" fill="#33658a"/>
      <path id="Path_328" data-name="Path 328" d="M201.012,67.137h-3.266V1.633A1.633,1.633,0,0,1,199.379,0h0a1.633,1.633,0,0,1,1.633,1.633Z" transform="translate(-163.236)" fill="#faac42"/>
      <path id="Path_329" data-name="Path 329" d="M75.456,7.5v55.74h-29.9Z" transform="translate(-44.185 -5.866)" fill="#33658a"/>
      <path id="Path_330" data-name="Path 330" d="M141.185,298.319l1.631,5.215L103.2,305.879l-.037-.625V300.57Z" transform="translate(-89.244 -233.365)" fill="#777b7f"/>
      <path id="Path_331" data-name="Path 331" d="M109.142,317.829l-11.4,17.782h-54l-4.5-13.645,13.952-.825L92.82,318.8Z" transform="translate(-39.249 -248.627)" fill="#f6ae2d"/>
      <path id="Path_332" data-name="Path 332" d="M142.781,341.5a1.633,1.633,0,0,1-.095-3.263l31.167-1.845a1.633,1.633,0,1,1,.193,3.26L142.879,341.5C142.846,341.5,142.814,341.5,142.781,341.5Z" transform="translate(-118.962 -263.146)" fill="#f69b16"/>
      <path id="Path_333" data-name="Path 333" d="M308.591,337.975a1.6,1.6,0,0,1-.32-.033,1.691,1.691,0,0,1-.3-.091,1.66,1.66,0,0,1-.281-.15,1.612,1.612,0,0,1-.248-.2,1.484,1.484,0,0,1-.2-.248,1.4,1.4,0,0,1-.15-.281,1.561,1.561,0,0,1-.094-.3,1.6,1.6,0,0,1-.032-.32,1.579,1.579,0,0,1,.032-.318,1.521,1.521,0,0,1,.094-.307,1.4,1.4,0,0,1,.15-.281,1.488,1.488,0,0,1,.2-.248,1.614,1.614,0,0,1,.248-.2,1.646,1.646,0,0,1,.281-.15,1.692,1.692,0,0,1,.3-.092,1.585,1.585,0,0,1,.64,0,1.692,1.692,0,0,1,.3.092,1.645,1.645,0,0,1,.281.15,1.635,1.635,0,0,1,.6.734,1.654,1.654,0,0,1,.091.307,1.541,1.541,0,0,1,.033.318,1.592,1.592,0,0,1-.033.32,1.688,1.688,0,0,1-.091.3,1.653,1.653,0,0,1-.15.281,1.624,1.624,0,0,1-.2.248,1.6,1.6,0,0,1-.248.2,1.659,1.659,0,0,1-.281.15,1.707,1.707,0,0,1-.3.091A1.589,1.589,0,0,1,308.591,337.975Z" transform="translate(-248.669 -261.831)" fill="#ddb74b"/>
    </g>
  </g>
</svg>
