<?xml version="1.0" encoding="utf-8"?>
<!-- Generator: Adobe Illustrator 23.0.2, SVG Export Plug-In . SVG Version: 6.00 Build 0)  -->
<svg version="1.1" id="Layer_1" xmlns="http://www.w3.org/2000/svg" xmlns:xlink="http://www.w3.org/1999/xlink" x="0px" y="0px"
	 viewBox="0 0 612 792" style="enable-background:new 0 0 612 792;" xml:space="preserve">
<style type="text/css">
	
		.st0{clip-path:url(#SVGID_2_);fill:none;stroke:#FF0000;stroke-width:1.4401;stroke-linecap:round;stroke-linejoin:round;stroke-miterlimit:10;}
	
		.st1{clip-path:url(#SVGID_4_);fill:none;stroke:#FF0000;stroke-width:1.4401;stroke-linecap:round;stroke-linejoin:round;stroke-miterlimit:10;}
	
		.st2{clip-path:url(#SVGID_6_);fill:none;stroke:#FF0000;stroke-width:1.4401;stroke-linecap:round;stroke-linejoin:round;stroke-miterlimit:10;}
	
		.st3{clip-path:url(#SVGID_8_);fill:none;stroke:#FF0000;stroke-width:1.4401;stroke-linecap:round;stroke-linejoin:round;stroke-miterlimit:10;}
	
		.st4{clip-path:url(#SVGID_10_);fill:none;stroke:#FF0000;stroke-width:1.4401;stroke-linecap:round;stroke-linejoin:round;stroke-miterlimit:10;}
	
		.st5{clip-path:url(#SVGID_12_);fill:none;stroke:#FF0000;stroke-width:1.4401;stroke-linecap:round;stroke-linejoin:round;stroke-miterlimit:10;}
	
		.st6{clip-path:url(#SVGID_14_);fill:none;stroke:#FF0000;stroke-width:1.4401;stroke-linecap:round;stroke-linejoin:round;stroke-miterlimit:10;}
	
		.st7{clip-path:url(#SVGID_16_);fill:none;stroke:#FF0000;stroke-width:1.4401;stroke-linecap:round;stroke-linejoin:round;stroke-miterlimit:10;}
	
		.st8{clip-path:url(#SVGID_18_);fill:none;stroke:#FF0000;stroke-width:1.4401;stroke-linecap:round;stroke-linejoin:round;stroke-miterlimit:10;}
</style>
<g>
	<g>
		<g>
			<defs>
				<rect id="SVGID_1_" x="-99" y="-135" width="874" height="1081"/>
			</defs>
			<clipPath id="SVGID_2_">
				<use xlink:href="#SVGID_1_"  style="overflow:visible;"/>
			</clipPath>
			<path class="st0" d="M311.79,79.1c-1.08,0.34-2.15,0.68-2.51,0.34c-0.72-0.34,0-2.37-0.36-3.39c-0.36-1.69-3.95-2.71-4.31-4.4
				c-0.72-2.71,7.54-4.4,8.62-8.13c0-0.68,0-1.36,0.36-1.69c0.36-6.1-10.41-8.81-12.21-14.57c-0.36-0.68-0.72-1.69-0.72-2.37
				c0-1.36,1.44-2.71,2.15-3.73c2.87-3.05,10.41,0,12.93-3.39c0.72-0.34,1.08-1.36,1.44-2.03c3.59-6.44-1.08-16.26-6.1-22.02
				c-0.72-1.02-1.8-1.69-2.51-2.37c-0.72-1.36,0.72-3.39,0.36-4.74c-1.08-2.03-7.54-1.02-7.9-3.05c0-1.02,0.72-2.37,0.72-3.73
				c0-2.37-2.87-4.07-3.95-6.44c-0.36-1.36-0.72-2.71-0.72-4.07c0-2.03,2.51-4.07,2.87-6.44c0.36-2.37,0.72-5.08,0-7.11
				c-0.36-2.37-2.51-4.4-3.59-6.78c-2.51-5.08-3.23-10.5-5.03-15.92c-3.95-11.18-7.54-23.04-15.08-32.18
				c-1.8-2.03-3.95-3.73-5.39-5.76c-1.8-2.71-1.44-6.1-3.59-8.47c-1.44-1.69-5.39-2.03-6.1-3.73c-1.08-1.69,1.08-4.74,0.72-7.11
				s-1.44-5.42-2.87-7.45c-1.08-1.36-2.51-2.03-3.95-3.05c-1.8-2.37-1.8-6.44-4.31-7.79c-1.08-0.68-2.87-1.36-3.95-1.02
				c-0.72,0-1.44,0.68-1.8,1.36c-0.36,0.68,0,2.03,0.36,2.71c0.36,2.03,3.23,4.07,5.39,4.74c1.44,0.34,3.59-1.02,4.67-0.34
				c1.08,0.34,1.8,1.02,2.51,1.69c2.15,2.37,3.59,5.76,3.95,8.81c0,2.03-1.8,3.73-1.44,5.76c0,0.68,0.36,1.36,0.72,2.03
				c1.44,1.69,4.67,2.03,6.1,3.39c2.15,2.03,1.8,5.76,3.59,8.13c1.44,2.37,4.31,4.07,5.39,6.44c0.36,0.68,0.72,1.69,0.72,2.03
				c0.72,2.37-4.67-5.76-6.46-8.81c-1.44-2.37-1.44-5.76-3.23-7.79c-1.44-1.69-5.39-2.03-6.46-3.73c-0.72-2.03,1.8-5.42,0.72-7.45
				c0-1.02-0.36-2.37-1.08-2.37c-0.72-0.34-1.44,0-1.8,0c-2.51,0.34-1.44,5.76-1.44,8.13c0.36,8.81,13.64,13.55,19.03,21.34
				c6.1,8.81,10.41,18.97,14.36,28.8c2.15,5.76,3.23,12.2,5.74,17.62c1.08,2.37,3.23,4.4,3.59,6.78c0.72,2.71,0.36,6.1-0.36,8.81
				c-1.08,3.39-3.95,6.1-6.46,8.81c-5.39,7.11-14.36,11.18-19.75,17.96c-2.87,3.39-3.95,8.47-7.18,10.16
				c-3.59,1.36-8.98-1.02-13.29-0.68c-2.87,0-6.1,0.34-9.34,1.02c-14,2.03-25.49,12.87-39.5,15.25c-2.87,0.68-5.39,1.36-8.26,1.36
				c-2.51,0-6.1-1.69-7.54-1.02c-3.23,1.36-1.08,8.81-1.44,13.21c0,6.44,2.87,13.55,0.72,18.97c-2.15,5.76-10.77,9.15-13.29,14.91
				c-1.08,2.71-2.15,5.76-2.51,8.47c0,2.71,0.72,5.42,1.44,7.79c1.08,4.07,3.95,7.45,6.1,11.18c11.49,19.99,29.8,36.25,40.21,56.92
				c1.8,3.39,3.59,7.11,5.03,10.84c1.08,3.39,2.15,6.78,2.51,10.5c0.36,3.39,0.36,6.78,0,10.16c-0.72,4.07-1.8,8.13-2.87,11.86
				c-2.87,11.18-9.34,21.68-12.21,32.86c-1.8,5.42-2.87,11.52-3.59,17.28c-3.59,23.71,10.05,48.11,7.18,72.16
				c-0.72,5.76-3.23,11.86-2.87,17.62c0,1.69,1.44,4.4,0.36,5.08c-0.72,0.34-2.15,0-2.87,0.34c-0.72,0.68-1.08,1.69-1.44,2.37
				c-2.87,5.42,0.72,12.2,0.36,17.96c-0.72,5.42-2.51,10.84-3.23,16.26c-2.51,18.97,1.44,38.62,5.74,57.25
				c1.08,4.07,2.51,8.13,3.23,12.2c0.36,3.39,1.44,7.45-0.36,10.16c-0.72,1.02-2.51,2.03-2.87,3.05c-0.72,2.03,5.39,3.05,7.9,5.08
				c6.46,5.42,8.98,14.91,12.57,22.7c3.95,7.79,7.18,15.92,10.05,24.05c5.03,13.89,6.1,28.8,10.41,42.69
				c1.8,5.76,3.23,11.52,5.74,16.94c2.87,6.1,5.74,12.53,10.41,17.62c3.59,4.07,10.05,6.44,13.64,10.5
				c5.39,6.78,4.67,17.28,7.9,25.75c7.18,18.97,21.18,35.57,29.44,54.21c5.03,11.52,7.18,24.73,13.64,35.57
				c3.23,5.76,7.18,11.18,11.49,16.26c2.87,3.39,5.74,6.1,8.62,9.15c3.95,3.05,8.98,5.42,12.21,9.15c2.51,2.71,5.03,5.76,6.46,8.81
				c1.44,3.39-0.72,8.13,1.8,10.5c0.72,0.34,1.44,0.68,2.15,1.36c2.87,2.71-0.72,8.47-2.15,12.2c-1.08,2.71-4.67,5.08-4.67,7.79
				c0.36,1.36,0.72,2.71,1.44,3.73c3.23,7.79,12.21,12.2,19.03,17.28c4.31,3.05,11.49,4.07,13.64,8.81
				c0.72,1.02,0.72,3.05,1.44,4.07c1.08,0.68,2.87,1.02,4.31,1.02c1.8,0,3.59-3.39,5.03-2.71c1.08,0.34,2.15,2.03,2.51,3.39
				c0.72,1.36,0,3.39,0.36,4.74c1.44,6.78,12.57,8.13,19.39,11.52c0.36,0,0.72,0.34,1.08,0.34"/>
		</g>
		<g>
			<defs>
				<rect id="SVGID_3_" x="-99" y="-135" width="874" height="1081"/>
			</defs>
			<clipPath id="SVGID_4_">
				<use xlink:href="#SVGID_3_"  style="overflow:visible;"/>
			</clipPath>
			<polyline class="st1" points="437.46,859.27 454.69,866.39 471.94,872.48 490.25,877.23 502.46,879.94 502.82,872.15 
				503.18,868.76 505.33,861.98 506.05,852.16 506.41,841.32 506.05,831.83 			"/>
		</g>
		<g>
			<defs>
				<rect id="SVGID_5_" x="-99" y="-135" width="874" height="1081"/>
			</defs>
			<clipPath id="SVGID_6_">
				<use xlink:href="#SVGID_5_"  style="overflow:visible;"/>
			</clipPath>
			<path class="st2" d="M506.05,831.83c1.08-2.03,1.8-3.73,1.08-5.08"/>
		</g>
		<g>
			<defs>
				<rect id="SVGID_7_" x="-99" y="-135" width="874" height="1081"/>
			</defs>
			<clipPath id="SVGID_8_">
				<use xlink:href="#SVGID_7_"  style="overflow:visible;"/>
			</clipPath>
			<polyline class="st3" points="507.13,826.75 504.26,823.02 501.38,820.65 			"/>
		</g>
		<g>
			<defs>
				<rect id="SVGID_9_" x="-99" y="-135" width="874" height="1081"/>
			</defs>
			<clipPath id="SVGID_10_">
				<use xlink:href="#SVGID_9_"  style="overflow:visible;"/>
			</clipPath>
			<polyline class="st4" points="501.38,820.65 501.74,820.31 502.1,819.97 502.1,819.63 502.46,819.3 502.82,818.96 503.18,818.62 
				503.54,818.28 503.9,818.28 504.26,817.94 504.62,817.6 504.98,817.26 505.33,817.26 505.69,816.92 506.05,816.92 506.41,816.58 
				506.77,816.58 507.13,816.58 507.49,816.25 507.85,816.25 508.21,816.25 508.57,816.25 508.93,815.91 509.28,815.91 
				509.64,815.91 510,815.91 510.36,815.91 510.72,815.91 			"/>
		</g>
		<g>
			<defs>
				<rect id="SVGID_11_" x="-99" y="-135" width="874" height="1081"/>
			</defs>
			<clipPath id="SVGID_12_">
				<use xlink:href="#SVGID_11_"  style="overflow:visible;"/>
			</clipPath>
			<polyline class="st5" points="510.72,815.91 535.14,817.26 542.32,818.62 563.86,816.58 			"/>
		</g>
		<g>
			<defs>
				<rect id="SVGID_13_" x="-99" y="-135" width="874" height="1081"/>
			</defs>
			<clipPath id="SVGID_14_">
				<use xlink:href="#SVGID_13_"  style="overflow:visible;"/>
			</clipPath>
			<path class="st6" d="M563.86,816.58c0-0.34-0.36-0.34-0.36-0.68c-0.36-0.34-1.08-1.02-1.08-1.69"/>
		</g>
		<g>
			<defs>
				<rect id="SVGID_15_" x="-99" y="-135" width="874" height="1081"/>
			</defs>
			<clipPath id="SVGID_16_">
				<use xlink:href="#SVGID_15_"  style="overflow:visible;"/>
			</clipPath>
			<polyline class="st7" points="562.42,814.21 557.4,807.1 555.96,804.39 554.88,800.32 554.53,799.31 			"/>
		</g>
		<g>
			<defs>
				<rect id="SVGID_17_" x="-99" y="-135" width="874" height="1081"/>
			</defs>
			<clipPath id="SVGID_18_">
				<use xlink:href="#SVGID_17_"  style="overflow:visible;"/>
			</clipPath>
			<path class="st8" d="M554.53,799.31c-1.08-0.68-1.8-1.69-2.15-2.71c-3.95-5.76-6.1-12.87-7.9-19.31
				c-1.44-5.08-1.8-10.16-3.59-14.91c-1.8-5.08-6.1-9.49-7.18-14.57c-1.08-5.76,0.36-11.86,1.44-17.96
				c0.72-4.07,4.67-8.47,3.23-12.2c-0.36-1.36-1.8-2.71-2.15-4.07c-0.72-2.37,1.8-5.08,1.8-7.45c0.36-2.03-0.36-4.4-0.72-6.44
				c-0.72-4.07-2.51-7.79-4.31-11.18c-2.51-5.08-6.1-9.82-10.41-13.89c-3.95-3.73-8.98-6.78-14-9.49
				c-5.39-3.39-12.21-5.08-17.59-8.47c-3.59-2.03-9.34-3.39-10.05-6.78c-0.36-1.69,1.08-3.73,0.72-4.74
				c-0.72-2.03-4.67-2.37-6.1-4.07c-1.08-1.02-1.8-2.03-2.51-3.39c-3.59-5.08-6.1-10.84-8.26-16.6c-3.95-10.5-1.44-22.36-5.39-32.52
				c-2.15-5.42-6.46-10.16-8.26-15.58c-1.08-3.39,0.72-9.82-2.51-10.84c-0.72-0.34-2.15,0-3.23-0.34c-0.72-0.68-1.08-2.37-1.44-3.39
				c-1.44-3.05-1.44-6.44-1.44-9.49c-0.36-4.4,1.44-8.81,1.8-13.21c0.36-4.4,0.72-9.15,0-13.55c-1.08-5.08-5.39-9.49-7.18-14.57
				c-0.72-2.71,0-6.44-1.8-8.13c-1.08-0.68-2.87-0.68-3.59-1.36c-1.44-1.02-2.15-2.71-2.51-4.07c-0.72-1.36-1.08-3.05-0.72-4.4
				c0.36-1.02,2.15-2.03,2.15-3.05c-0.36-1.02-2.15-1.69-2.87-2.71c-4.31-4.74-5.03-12.2-5.74-18.63c0-1.69,0.36-3.39,0-5.08
				c-0.72-4.07-5.74-7.79-5.39-11.86c0-1.36,1.44-3.05,1.08-4.07c-0.36-1.02-1.8-1.36-2.51-2.37c-1.44-2.03-0.36-5.42-1.08-7.79
				c-1.08-4.4-5.03-8.13-4.67-12.2c0-1.02-0.36-2.37,0.36-2.71c0.72-1.02,3.23,0.34,4.31-0.68c0.36-0.34,1.08-0.68,1.08-1.02
				c0-0.68-0.72-1.69-1.44-2.37c-1.08-1.02-3.95-0.34-5.03-1.36c-0.72-0.68-1.08-1.69-1.44-2.71c-7.18-12.87-2.15-29.14-4.67-43.7
				c-2.51-16.26-4.31-32.86-10.41-48.45c-1.44-2.71-1.8-5.76-3.59-8.13c-1.44-1.69-5.39-2.37-5.03-4.07
				c0.36-0.68,1.08-1.36,1.08-1.69c2.51-4.4-5.39-9.15-6.46-13.89c-0.72-3.05-0.72-6.1-1.08-9.15c-1.08-12.2,3.95-24.05,3.95-36.25
				c0-3.73,0-7.11-0.36-10.84c-1.44-15.58-10.41-30.15-14.72-45.74c-2.15-8.13-2.15-16.6-5.74-24.05
				c-2.51-5.08-7.18-9.15-10.05-14.23c-2.15-3.73-6.1-7.79-5.03-11.86c0-0.68,0-1.02,0.36-1.36c0.72-1.02,3.23,0.34,4.31-0.68
				c0.36-0.34,0.36-1.36,0.72-2.03c2.51-6.44-6.1-12.87-7.18-19.65c-1.08-5.42,4.31-13.21,0-16.6c-0.36-0.68-1.08-1.36-1.8-1.36
				c-1.44-0.34-1.08,4.4-2.87,5.08c-1.08,0.34-2.15,0-3.23,0c-5.74-0.34-6.82-9.49-9.34-14.91c-3.59-6.44-3.59-14.23-7.54-20.33
				c-1.08-1.36-1.8-4.07-3.59-4.07c-0.72,0-1.8,0.68-2.87,1.02c-3.23,1.36-7.9,4.74-7.54,7.11c0.36,1.69,3.95,3.05,4.31,4.74
				c0.36,1.02,0.36,2.03,0.36,3.05"/>
		</g>
	</g>
</g>
</svg>
