<?xml version="1.0" encoding="utf-8"?>
<!-- Generator: Adobe Illustrator 23.0.2, SVG Export Plug-In . SVG Version: 6.00 Build 0)  -->
<svg version="1.1" id="Layer_1" xmlns="http://www.w3.org/2000/svg" xmlns:xlink="http://www.w3.org/1999/xlink" x="0px" y="0px"
	 viewBox="0 0 612 792" style="enable-background:new 0 0 612 792;" xml:space="preserve">
<style type="text/css">
	.st0{opacity:0.6;}
	.st1{fill:none;stroke:#FFD195;stroke-width:7;stroke-miterlimit:10;}
</style>
<g class="st0">
	<path class="st1" d="M-70.14-220.62l-4.7,34.07c11.48,36.74,39.04,80.37,51.66,87.26S5.53-64.86,3.23-43.04
		S-20.88,37.33-23.17,59.14s14.93,76.92,12.63,97.59s-16.07,63.15-17.22,95.29s9.18,52.81,13.78,83.81s24.11,60.85,32.15,89.55
		s9.18,72.33,20.67,96.44s28.7,21.81,36.74,43.63s9.18,41.33,19.52,57.41s22.96,33.3,29.85,53.96c6.89,20.67,22.96,81.52,37.89,88.4
		c14.93,6.89,45.92,20.67,44.78,41.33c-1.15,20.67-28.7,17.22,39.04,75.77C314.37,940.88,542.69,961,542.69,961s5.9-1.75-9.03-17.82
		c-67.97-73.2-47.07,8.04-80.37-97.59s-40.18-90.7-41.33-140.07s-20.67-55.11-44.78-66.59c-24.11-11.48-42.48-41.33-51.66-73.48
		s-1.15-32.15-18.37-60.85c-17.22-28.7-10.33,0-14.93-56.26c-4.59-56.26-43.63-133.18-48.22-171.07s8.04-22.96-6.89-72.33
		c-14.93-49.37-27.55-41.33-31-90.7s4.59-8.04-6.89-75.77c-11.48-67.74-2.3-53.96-27.55-103.33s-35.59-52.81-35.59-68.89
		s-16.07-62-31-75.77s-18.37-19.52-37.89-27.55s-40.18-8.04-55.11-3.44c-13.02,4.01-35.64,21.99-55.69,22.71
		c-2.94,0.11-5.83-0.1-8.6-0.89C-70.24-221-70.14-220.62-70.14-220.62z"/>
</g>
</svg>
