<svg xmlns="http://www.w3.org/2000/svg" width="291.885" height="338.366" viewBox="0 0 291.885 338.366">
  <g id="Group_172" data-name="Group 172" transform="translate(-244 -1611.577)">
    <g id="planet-earth-svgrepo-com" transform="translate(244 1658.057)">
      <circle id="Ellipse_257" data-name="Ellipse 257" cx="145.943" cy="145.943" r="145.943" fill="#45678a"/>
      <g id="Group_121" data-name="Group 121" transform="translate(84.136)">
        <path id="Path_353" data-name="Path 353" d="M78.525,0A145.454,145.454,0,0,0,21.391,11.615c-.8,4.776-4.791,12.934-4.67,15.535.564.111,37.1-37.241,32.57-12.028C46.368,31.353,16.5,31.257,17.783,47.6,49.166,59.9,60.111,24.237,86.769,24.382c8.892.05,31.665-14.01,36.008-11.147,17.594,11.59-4.021,52.675-17.483,39C92.35,39.294,73.88,56.772,74.711,76.957c6.728.3,9.6-19.1,15.651-12.632,6.663,7.131,4.258,21.489-4.962,24.785C76.12,92.427,39.72,64.5,48.662,85.668,58.5,109.16,19.2,127.312,58.868,117.841c18.7-4.484,12.486,9.748,21.308,16.537,10.508,8.067,5.858-11.142,13.517-8.218,11.147,4.313-1.917,15.425,15.54,7.358,20.477-9.34,12.783,5.224,19.053,14.745,11.756,17.775,40.648,34.835,55.79,11.343,3.568-5.541,1.278-49.354,23.753-19.964,14.272,18.671,9.376-22.057,11.308-32.757A145.971,145.971,0,0,0,78.525,0Z" transform="translate(-16.718)" fill="#3f5438"/>
      </g>
      <path id="Path_354" data-name="Path 354" d="M145.5,70.487l-26.914-20.17-18.042.71L81.831,45.138l-14.65-10.1-33.23,7.68-13.7,6.628L5,69.888l5.395,24.076q2.31,2.982,4.776,5.843l28.222,13.175,19.048,2.572,11.333,23.26.342,2.34a145.55,145.55,0,0,0,51.664,9.441,146.024,146.024,0,0,0,36.355-4.57l3.83-22.868,17.407-14.126L190.6,86.48l-36.345-.151Z" transform="translate(20.163 141.291)" fill="#fac176"/>
      <path id="Path_355" data-name="Path 355" d="M1.887,99.316c.694-.06.785-.121.845-.181,6.527-6.522,11.962-7.614,17.4-17.4s-1.087-9.788,0-26.1-1.087-8.7,0-26.1c.393-6.26-.267-9.7-7.876-12.164A145.982,145.982,0,0,0,1.887,99.316Z" transform="translate(0 70.012)" fill="#3f5438"/>
      <path id="Path_356" data-name="Path 356" d="M130.813,101.14c-5.45-.418-25.58-6.708-30.2-15.1S85.938,63.4,85.52,65.913c-.287,1.711-45.851-13.8-77.153-24.851L5,45.6l5.395,24.076q2.31,2.982,4.776,5.843L43.393,88.69l19.048,2.572,11.333,23.26.342,2.34A145.55,145.55,0,0,0,125.78,126.3a146.024,146.024,0,0,0,36.355-4.57l2.9-17.337c-2.562-.8-5.516-1.857-9.064-3.256C142.136,95.69,136.263,101.558,130.813,101.14Z" transform="translate(20.163 165.583)" fill="#fdbe6b"/>
      <path id="Path_357" data-name="Path 357" d="M180.674,109.031l7.232-22.551-36.345-.151L142.8,70.487l-26.914-20.17-18.042.71L79.128,45.138l-14.65-10.1-33.23,7.68-13.7,6.628-11.882,16C36.971,76.4,82.535,91.915,82.822,90.2c.418-2.516,10.483,11.741,15.1,20.13s24.745,14.68,30.2,15.1,11.323-5.45,25.163,0c3.548,1.4,6.5,2.456,9.064,3.256l.926-5.531Z" transform="translate(22.86 141.291)" fill="#3f5438"/>
      <path id="Path_358" data-name="Path 358" d="M63.818,2.153c-.976,18.419-1.7,31.73-1.7,31.73L34,62s26.36,37.784,28.122,42.177,23.723,9.667,28.122,7.03,21.091-16.7,28.122-7.03c4.892,6.728,4.263,12.6,7.272,16.733,2.073.03,4.665,1.424,7.9,4.68,4.57,1.369,9.778,2.713,14.418,3.835,1.54-9.008.4-25.077,1.5-31.227A146.264,146.264,0,0,0,63.818,2.153Z" transform="translate(137.105 8.682)" fill="#5f6f56"/>
      <path id="Path_359" data-name="Path 359" d="M60.791,3.806c-.916,17.382-1.661,31.171-1.661,31.171L39,55.107s18.872,27.05,20.13,30.2,16.985,6.92,20.13,5.033,15.1-11.952,20.13-5.033,1.887,12.581,10.065,15.1c6.91,2.129,16.441,4.237,19.249,4.841.04-5.6.055-10.775.584-13.7A146.2,146.2,0,0,0,60.791,3.806Z" transform="translate(157.268 15.348)" fill="#fdbe6b"/>
    </g>
    <g id="bicycle-svgrepo-com" transform="translate(345 1509.765)">
      <path id="Path_334" data-name="Path 334" d="M17.721,214.291a17.721,17.721,0,1,1,17.721-17.721A17.742,17.742,0,0,1,17.721,214.291Zm0-31.416a13.694,13.694,0,1,0,13.694,13.694A13.71,13.71,0,0,0,17.721,182.875Z" transform="translate(0 -62.263)" fill="#777b7f"/>
      <path id="Path_335" data-name="Path 335" d="M298.382,214.291A17.721,17.721,0,1,1,316.1,196.57,17.742,17.742,0,0,1,298.382,214.291Zm0-31.416a13.694,13.694,0,1,0,13.694,13.694A13.71,13.71,0,0,0,298.382,182.875Z" transform="translate(-226.84 -62.263)" fill="#777b7f"/>
      <path id="Path_336" data-name="Path 336" d="M150.512,134.305a1.439,1.439,0,0,1-2.717.66l-10.875-21.1-10.825,16.892-2.42-1.551,10.7-16.7h-21.8l8.447,16.555-2.562,1.308-8.369-16.4-11.749,18.2-2.416-1.559,12.655-19.6-3.624-7.1,2.562-1.308,3.588,7.034h23.631l-2.947-5.72a1.438,1.438,0,0,1,.349-1.758,1.482,1.482,0,0,1,.965-.339h9.132l1.358.1a4.56,4.56,0,0,1,4.645,4.427,4.694,4.694,0,0,1-4.712,4.685H141.94a1.438,1.438,0,1,1,0-2.876h1.691a1.731,1.731,0,0,0,1.726-1.849,1.855,1.855,0,0,0-1.782-1.712l-1.34.1h-6.808l14.923,28.958A1.421,1.421,0,0,1,150.512,134.305Z" transform="translate(-77.531 -0.001)" fill="#45678a"/>
      <path id="Path_337" data-name="Path 337" d="M132.167,104.693H121.6a1.438,1.438,0,0,1,0-2.876h10.563a1.438,1.438,0,1,1,0,2.876Z" transform="translate(-97.122 -0.004)" fill="#f6ae2d"/>
      <path id="Path_338" data-name="Path 338" d="M86.349,241.443a1.438,1.438,0,0,1-.089-2.874l26.83-1.682a1.438,1.438,0,1,1,.18,2.871L86.44,241.44Z" transform="translate(-68.629 -109.17)" fill="#2e383b"/>
      <path id="Path_339" data-name="Path 339" d="M113.182,286.425l-.091,0L86.26,284.74a1.438,1.438,0,1,1,.18-2.871l26.83,1.682a1.438,1.438,0,0,1-.089,2.874Z" transform="translate(-68.629 -145.526)" fill="#2e383b"/>
      <path id="Path_340" data-name="Path 340" d="M335.993,106.348a4.773,4.773,0,0,1-4.777,4.712H329.66a1.435,1.435,0,0,1-1.016-.42,1.539,1.539,0,0,1-.44-1.055,1.507,1.507,0,0,1,1.494-1.46h1.691a1.619,1.619,0,0,0,1.641-1.792,1.741,1.741,0,0,0-1.725-1.644h-1.335v-2.876h1.4A4.567,4.567,0,0,1,335.993,106.348Z" transform="translate(-265.266)" fill="#f6ae2d"/>
      <path id="Path_341" data-name="Path 341" d="M204.538,250.069a6.592,6.592,0,1,1,6.592-6.592A6.6,6.6,0,0,1,204.538,250.069Zm0-10.308a3.716,3.716,0,1,0,3.716,3.716A3.72,3.72,0,0,0,204.538,239.761Z" transform="translate(-159.987 -109.171)" fill="#f6ae2d"/>
      <path id="Path_342" data-name="Path 342" d="M71.719,255.477a4.91,4.91,0,1,1,4.91-4.91A4.916,4.916,0,0,1,71.719,255.477Zm0-6.943a2.033,2.033,0,1,0,2.033,2.033A2.036,2.036,0,0,0,71.719,248.533Z" transform="translate(-53.997 -116.261)" fill="#f6ae2d"/>
      <path id="Path_343" data-name="Path 343" d="M213.247,274.753a1.439,1.439,0,0,1-1.375-1.861l2.495-8.121a1.438,1.438,0,1,1,2.75.844l-2.5,8.122A1.439,1.439,0,0,1,213.247,274.753Z" transform="translate(-171.19 -130.888)" fill="#45678a"/>
    </g>
  </g>
</svg>
