<svg xmlns="http://www.w3.org/2000/svg" width="122" height="116.573" viewBox="0 0 122 116.573">
  <g id="Group_77" data-name="Group 77" transform="translate(-38.495 -139.918)">
    <path id="frog_outline" data-name="frog outline" d="M75.689,180.74s3.46.527,3.987-.827,11.584-15.119,12.411-15.42,3.46-2.708,5.04-3.159,13.84-5.717,16.849-5.867,2.557-.451,4.363-1.805,11.659-6.845,14.517-7.146,3.836-4.438,4.965-5.491,2.934-1.354,3.611-.9,3.987,2.106,4.212,2.708-.527,3.084,1.2,3.686,3.761,1.655,4.438,1.58,4.814.527,5.491,1.128a9.018,9.018,0,0,1,3.235,4.965c.527,2.708.752,6.318,0,8.35s-4.814,5.416-5.341,6.318-3.46,3.686-4.212,4.889-5.416,4.288-6.469,4.814-7.071,3.987-8.274,5.341-2.482,2.181-2.708,3.31,0,3.761,1.354,4.664,5.34,3.761,6.544,5.491,1.73,5.115,2.859,5.491,3.31.527,3.911,1.354,5.642,6.92,7.447,7.372,2.558,1.805,2.407,2.783-.827,2.257-1.354,2.407a5.357,5.357,0,0,1-3.084,0c-.827-.451-2.106-3.235-2.031-3.987S147.6,209.1,147,209.023a1.415,1.415,0,0,0-1.5.978c-.075.6-.9,3.009-.376,3.761s2.257,1.279,2.482,2.332a3.5,3.5,0,0,1-.827,3.159,3,3,0,0,1-2.934,1.279c-.827-.226-3.234-1.956-3.385-2.933a5.258,5.258,0,0,1,1.2-3.385c.527-.376-.451-3.611-.9-3.761s-3.235,1.805-3.535,2.257-2.181,2.482-2.332,3.084.075,2.407-.752,3.31a5.053,5.053,0,0,1-3.912,1.128,3.724,3.724,0,0,1-2.257-2.031c-.3-1.053,2.031-5.341,2.858-6.018a18.359,18.359,0,0,0,3.159-3.385c.226-.6-2.031-3.009-2.633-3.46s-3.535-2.783-3.836-3.761-1.5,2.181-1.956,2.633-1.956,1.956-2.031,2.557-1.805,1.655-1.956,3.084,1.58,3.686,1.73,5.341.677,3.686.376,5.04-.226,3.611-.075,3.235a16.85,16.85,0,0,1,2.482-3.235c.451-.226,1.128-1.354,1.881-.752a4.6,4.6,0,0,1,1.58,2.858c-.075.752.151,1.881-.075,2.257s-.978,1.128-.6,1.128,2.181.527,2.482.451.752.6,1.805.527,2.633-1.279,3.385-1.2,1.805-.752,2.407-1.279,1.805-2.633,2.558-2.708,1.881-.451,2.708.677a3.713,3.713,0,0,1,.752,2.783,2.763,2.763,0,0,1-1.881,2.708c-1.88.9-2.106.151-2.933.376s-3.084,1.053-3.836,1.2-3.46.978-4.513.6-1.655.451-1.128,1.128,2.332,3.46,5.265,4.062,5.491,2.031,6.243,3.084,1.881,3.084,1.2,4.513a2.038,2.038,0,0,1-1.805,1.429c-.451.151-2.858-1.053-3.46-1.956a19.945,19.945,0,0,0-5.19-3.761,13.2,13.2,0,0,0-5.416-.827,13.558,13.558,0,0,0-3.084.6s-5.459-.527-6.34-.376-3.664.075-4.416-.6-2.106-4.288-3.31-5.19a10.324,10.324,0,0,0-3.761-2.181c-1.655-.451-1.354-1.279-1.354-1.279s.3-1.279,1.354-1.354,2.708,1.2,3.159.6,0-.376,0-3.836.9-5.867,1.053-7.221.677-3.31,0-3.686-2.482,1.429-2.783,1.881-4.062,2.858-5.942,2.783-5.341,1.429-5.265,1.881-.752.752,1.2,2.031,4.137,6.695,4.062,8.048a17.879,17.879,0,0,1-.376,3.31c-.3,1.5-3.911,3.686-1.805,3.084s5.717-1.429,6.544-1.279,1.655,0,2.181.6a3.314,3.314,0,0,1,.3,3.159,4.9,4.9,0,0,1-2.558,1.805c-.526.075-3.535.164-3.535.916s3.535.739,4.438.663,3.46.827,5.19.752,3.761,0,5.115-.527,2.181-.6,2.708-.15,1.354.978,1.2,1.73-.151,1.956-.978,2.557-3.987.451-4.889.376a20.609,20.609,0,0,0-3.084.073c-.827.077-.752.679-1.73.754s-3.535.526-5.341,0-6.243-1-6.318.251,1.279,2.532,2.783,2.908,3.46,1.58,3.761,2.407a2.862,2.862,0,0,1-.752,2.783c-.752.752-3.084,1.053-3.987,0a26.041,26.041,0,0,0-5.642-4.739c-1.805-.9-8.2-4.363-10.155-4.889s-11.057-3.611-12.035-4.212-20.46-11.358-23.393-15.8-4.438-8.049-4.363-9.478.677-3.836,1.881-4.739,2.181-.827,3.686-.827,3.535.451,4.889,0,2.858-2.482,2.031-4.288-1.73-2.106-5.115-2.858-4.513,0-6.62-1.053-4.287-2.031-5.641-4.288-2.332-4.438-1.881-6.093.527-1.58,1.881-2.181a46.2,46.2,0,0,1,6.77-2.031c3.31-.827,7.447-3.234,8.725-3.836s8.575-4.137,10.155-4.363a20.119,20.119,0,0,1,5.566-.151C72.831,180.289,75.689,180.74,75.689,180.74Z" fill="#aeafb1"/>
    <g id="Group_76" data-name="Group 76" transform="translate(41.493 155.065)">
      <path id="Path_228" data-name="Path 228" d="M487.274,269.406c-1.5-.03-2.379.1-2.793.517a2.7,2.7,0,0,1-1.267.88A1.472,1.472,0,0,1,482,268.475c.983-1.552,4.4-.414,7.4-3.259s8.483-4.966,8.483-4.966S489.86,269.457,487.274,269.406Z" transform="translate(-383.757 -247.991)" fill="#2e383b"/>
      <path id="Path_229" data-name="Path 229" d="M376.949,348.813c.112-.367.451-.577,0-.978s.351-2.633.677-2.934,1.2-1.153,1.7-1.2.786-.1,1.108.251,0,1.254-.13,1.4-.476.566-.451.885a1.441,1.441,0,0,1-.326.92,6.68,6.68,0,0,0-1,1.379,4.051,4.051,0,0,0-.15.953c.025.2-.853.451-.978.376A1,1,0,0,1,376.949,348.813Z" transform="translate(-302.761 -312.407)" fill="#2e383b"/>
      <path id="Path_230" data-name="Path 230" d="M358.157,374.2c.251.05.652.8.677,1.3a8.939,8.939,0,0,1-.225,2.006,2.253,2.253,0,0,1-.928,1.284c-.376.17-1.479,1.3-2.683.646s2.407-4.864,2.708-5.04A1.551,1.551,0,0,1,358.157,374.2Z" transform="translate(-285.723 -335.992)" fill="#2e383b"/>
      <path id="Path_231" data-name="Path 231" d="M331.712,387.576c.566-.943,1.429-.7,1.655-1.379a.646.646,0,0,1,1.254,0,4.788,4.788,0,0,1,.5,2.332,10.149,10.149,0,0,1-1.153,3.585,2.73,2.73,0,0,1-2.407,1.028,1.353,1.353,0,0,1-.878-1.254A13.279,13.279,0,0,1,331.712,387.576Z" transform="translate(-267.127 -344.876)" fill="#2e383b"/>
      <path id="Path_232" data-name="Path 232" d="M255.9,409.8c.577-.752.727-1.228,1.279-1.329s1.63-.176,2.031.2.125.6.928.423a11.227,11.227,0,0,1,2.733-.222c.5.075,1.6.2,1.755.928a4.078,4.078,0,0,1-.4,2.482,2.22,2.22,0,0,1-1.755.7,8.338,8.338,0,0,0-2.582-1.3,16.409,16.409,0,0,1-1.83.05c-.426-.075-1.354-.276-1.755-.025a1.54,1.54,0,0,0-.677,1.128.512.512,0,0,1-.426.6c-.351.1-.777.5-1.154,0s-.1-.928-.3-1.53-.251-.9-.577-.627-.677.175-.652.752a6.2,6.2,0,0,1,0,1.931,6.277,6.277,0,0,1-1.1,1.479.965.965,0,0,1-.752,0c-.376-.1.05-.151-.527.075s-.4.6-.6.677-.878.05-1.078-.351a4.208,4.208,0,0,1-.627-1.529c.025-.426.251-1.229.5-1.3s.1.025.853-.1.652.3.978-.226-.15-.852.451-1.178.552-.4.4-.777-.05-1.279.251-1.454.426-.878,1-1.153.5-.476,1.1-.451.953.05,1.178.426.3.953.6,1.254A2.2,2.2,0,0,0,255.9,409.8Z" transform="translate(-203.147 -361.831)" fill="#2e383b"/>
      <path id="Path_233" data-name="Path 233" d="M410.873,232.5c.1-2.357.552-2.858,1.3-3.611s1.655-.852,2.206-2.106a8.022,8.022,0,0,0,1.053-3.209c0-1.1.3-2.357,1.254-2.457s2.006-.3,2.307-.9.351-.6,1.254-.9a15.871,15.871,0,0,0,2.357-1.254c.4-.2,1,.1,1.805-.351s1.3-.451,1.755-1.153a3.322,3.322,0,0,0,.6-1.805c0-.5-.552-1.254,0-.953s.351.9,1.053.8.7.5.7-.1-.652-1.655-.4-3.059a6.8,6.8,0,0,1,1.856-3.31c.4-.251,1-1.053,1.4-1.2s.652-.5,1.153-.5.652.151.552.351-.953.6-.953.6-1.906,1.254-2.056,1.956-.3,1.3,0,1.6a1.206,1.206,0,0,0,1.454-.05,2.252,2.252,0,0,0,.6-1.254.808.808,0,0,1,.6-.9c.5-.151.552-.1.752.15s.351.7,0,.953-.8.552-.6,1,0,.953.6,1.053,1.454.2,1.655-.351.5-1.1,0-1.755-.953-.9-.6-1.254.2-.5.876-.251.829.8,1.531.9.8.351,1.705.1a21.006,21.006,0,0,0,3.41-1.1c.552-.351.251-.7.552-.953s.5-.552,1-.4a1.478,1.478,0,0,1,.9,1.1c0,.3-.2.852,0,1.1s1.354,0,1.655-.05-.05-.5.3-.05-1.2,1.2-1.2,1.2-1.3,1-1.6.953a3.068,3.068,0,0,1-1.354-1.4c-.1-.451-.151-.8-.552-.5a11.828,11.828,0,0,1-2.507,1c-.2,0-.953-.151-1.2.2a2.2,2.2,0,0,0-.05,1.805,8.4,8.4,0,0,1-.251,3.56,7.491,7.491,0,0,1-2.908,2.106,6.6,6.6,0,0,0-2.156,1.1c-.251.3-2.106.451-2.808.5a3.846,3.846,0,0,0-2.608,1.454,11.258,11.258,0,0,1-1.354,2.909,8.73,8.73,0,0,1-3.811,2.307c-.752.1-1.4-.2-2.357.7a6.2,6.2,0,0,0-1.354,2.658,1.773,1.773,0,0,0-.552.8c-.2.552.05.853-.151,1.2a2.91,2.91,0,0,1-1.454.752c-.2,0-1.6,1.354-2.156,1.5s-1.153.7-2.106.5S410.873,232.5,410.873,232.5Z" transform="translate(-329.062 -206.424)" fill="#2e383b"/>
      <path id="Path_234" data-name="Path 234" d="M434.567,325.5a5.721,5.721,0,0,1,3.51-.946c.8.15,1.1.388,1.153.946a1.542,1.542,0,0,1-1.3,1.411c-.652,0-1.3-.4-1.906-.351s-1.454-.043-1.454-.552A.3.3,0,0,1,434.567,325.5Z" transform="translate(-347.24 -297.623)" fill="#2e383b"/>
      <path id="Path_235" data-name="Path 235" d="M461.515,304.982c.2,1,.1,1.254.9,1.5s1.5.6,2.106.251,1.1-.752.6-1.354a3.733,3.733,0,0,0-1.7-1c-.6-.251-.905-.6-1.407,0Z" transform="translate(-368.17 -281.814)" fill="#2e383b"/>
      <path id="Path_236" data-name="Path 236" d="M379.386,319.225a6.924,6.924,0,0,0,1.5-1.655c.2-.451.9-.451.953,0a4.583,4.583,0,0,1,0,1.655,4.474,4.474,0,0,0-.251,1.5c.05.4-.623,1.2-.938,1.3a1.59,1.59,0,0,1-1.268,0c-.4-.251-.852-1.153-.552-1.6A6.228,6.228,0,0,0,379.386,319.225Z" transform="translate(-304.245 -291.995)" fill="#2e383b"/>
      <path id="Path_237" data-name="Path 237" d="M199.369,413.98c.42-.323,1.805-.207,2.106-.32s1.016.639,1.016,1.147.151.9-.263,1.335-1.41,0-1.542-.094-1.523-.677-1.561-1.147S199.125,414.168,199.369,413.98Z" transform="translate(-165.53 -366.454)" fill="#2e383b"/>
      <path id="Path_238" data-name="Path 238" d="M218.564,411.7c.47-.338.6-.432,1.147-.263s.94.752.714,1.053-.338.263-.508.583-.357.809-.658.79-.32.207-1.053-.282S218.564,411.7,218.564,411.7Z" transform="translate(-180.079 -364.683)" fill="#2e383b"/>
      <path id="Path_239" data-name="Path 239" d="M228.264,396.962a1.5,1.5,0,0,1,1.045-.282c.207.094.395.3.395.79s-.038,1-.414,1.166a1.178,1.178,0,0,1-1.2-.282C227.974,398.109,227.984,397.136,228.264,396.962Z" transform="translate(-187.853 -353.328)" fill="#2e383b"/>
      <path id="Path_240" data-name="Path 240" d="M177.476,428.574c-.242-.4.245-.79.47-.846a7.631,7.631,0,0,0,1.015-.113,2.35,2.35,0,0,0,.959-.37c.395-.25.038-.344.658-.419a7.11,7.11,0,0,1,1.655-.075c.564.056.414-.019,1,.414s.677.846.978,1.016.226.508.827.564.6.207,1.072,0a3.467,3.467,0,0,1,.884-.338,3.207,3.207,0,0,1,1.862.075,3.681,3.681,0,0,1,.926.884c.241.32.5.715.748.7a3.916,3.916,0,0,0,.846,0,2.833,2.833,0,0,1,1.749.488c.395.3.3.884.734,1a1.264,1.264,0,0,1,.865.451c.3.338,1.486,3.065,1.843,3.347s.376,1.091.545,1.335.357.677.6.714.338.075.357.357.075.47-.113.583-.451.32-.658,0-.075-.245-.432-.6a10.993,10.993,0,0,0-.959-.978c-.583-.508-1.147-1.316-1.768-1.58s-1.166-.846-1.617-.921a1.913,1.913,0,0,1-.94-.376c-.338-.226,0-.207-.6-.376a8.5,8.5,0,0,1-1.937-.508c-.207-.225.207-.056-.658-.508a13.93,13.93,0,0,0-3.2-1.54,3.743,3.743,0,0,1-1.843-.867c-.113-.15-.451-.226-.884-.338a10.876,10.876,0,0,1-1.692-.263c-.451-.207-.207-.188-.809-.263a4.287,4.287,0,0,1-1.109-.188c-.357-.132-.545-.019-.865-.132S177.589,428.762,177.476,428.574Z" transform="translate(-148.77 -376.553)" fill="#2e383b"/>
      <path id="Path_241" data-name="Path 241" d="M70.154,371.306c.489-.432,1.749-1.072,1.862-2.125s-.357-.715.621-1.711-.019-.715,1.486-1.655,2.764-1.448,2.99-2.407-.075-1.6.226-2.069.094-.583.677-1.2a11.342,11.342,0,0,0,1.768-2.595,5,5,0,0,1,1.015-1.824c.395-.3.32-.056.357-.677s-.733-.32-.771-.169a5.546,5.546,0,0,1-.47,1.053,10.661,10.661,0,0,1-1.335,1.5c-.32.207-1.579,1.147-2.031,1.354s-3.216,1.5-3.479,1.523-.752.489-1.11.451-.527.47-.414-.207.545-.376.207-.94-.282-1.091-.621-1.166-.527-.075-.621.244-.32.64-.188.959-.151.414.188.583.395.038.414.338.113-.056.019.3-1.316.846-1.749.846-2.332-.113-2.821-.094-1.542.263-2.05.244a24.486,24.486,0,0,1-2.52.113,1.885,1.885,0,0,0-1.448.32c-.3.207-1.373.959-1.6,1.053s-1.392.809-1.843,1-.47.357-1.072.094a6.286,6.286,0,0,1-1.711-1.241c-.3-.339.169-.263-.621-.527s-1.053-.376-1.373-.3-.527,0-.47.357A2.837,2.837,0,0,0,52.2,363.8c.244.357.451.884.733,1.222s1.015.846.959,1.2-.263.338-.64.3-.419.021-.62,0,3.78,2.482,4.87,2.52a29.007,29.007,0,0,1,5.472.489,25.855,25.855,0,0,0,2.67.7c.921.226.771.395,1.692.414s1.26.82,1.166.946a.687.687,0,0,0-.113.784c.169.47.921-.827,1.3-.865S70.154,371.306,70.154,371.306Z" transform="translate(-51.659 -320.902)" fill="#2e383b"/>
      <path id="Path_242" data-name="Path 242" d="M153.361,391.648c.282-.357,2.99-3.911,3.14-4.062s.451-.47.64-.414a.278.278,0,0,1,.188.357,1.981,1.981,0,0,0-.225.583s-.207.563-.113.7-1.3,1.317-1.486,1.787-.809.809-.827,1.467a4.837,4.837,0,0,0-.075,1.5c.132.79.564,1.467.639,1.993a6.007,6.007,0,0,1-.056,2.181,5,5,0,0,1-1.58,1.392c-.188.019-.715.075-.921-.207a5.158,5.158,0,0,1-.338-1.843c.019-.32.019-1.937.113-2.294a15.516,15.516,0,0,1,.451-1.937A8.75,8.75,0,0,0,153.361,391.648Z" transform="translate(-129.413 -346.002)" fill="#2e383b"/>
      <path id="Path_243" data-name="Path 243" d="M155.273,363.828a.631.631,0,0,1,.621.564c.038.282.188.47,0,.639a.81.81,0,0,1-.809.169c-.225-.132-.526-.341-.508-.66s.075-.713.282-.713Z" transform="translate(-131.137 -327.979)" fill="#2e383b"/>
      <path id="Path_244" data-name="Path 244" d="M144.177,367.065a.688.688,0,0,1,.809.348,1.978,1.978,0,0,1,.047.893.825.825,0,0,1-.412.555c-.208.094-.358.132-.5,0a1.893,1.893,0,0,1-.442-.959C143.7,367.639,143.885,367.131,144.177,367.065Z" transform="translate(-122.72 -330.464)" fill="#2e383b"/>
      <path id="Path_245" data-name="Path 245" d="M424.684,376.22c.386-.956,1.88-.274,2.708-1.759s.978-.771,1.429-2.651.188-1.5.527-2.257.15-.827.714-.94.827.165.827.515-.451.839-.263,1.591-.338,1.4.263,1.868a5.138,5.138,0,0,1,2.332,3.059,3.09,3.09,0,0,0,2.445,2.633c.865.113.8-.3.982-.263s.259-.111.3.283-.367.432-.3.77-.075.564.3.64,1.842-.677,2.18-.339-.6,1.053-.79,1.316-.347,1.11-.907,1.081a3.191,3.191,0,0,0-2.1.579c-.489.483-1.655,1.2-2.068,2.063s-3.084-2.6-3.836-2.971a11.287,11.287,0,0,1-2.971-2.633c-.3-.6-.3-1.053-.9-1.128s-.451.748-.865-.19S424.27,377.244,424.684,376.22Z" transform="translate(-339.488 -331.655)" fill="#2e383b"/>
      <path id="Path_246" data-name="Path 246" d="M201.049,557.957s-5.806,3.583-7.461,4.323a9.617,9.617,0,0,1-5.3.715c-1.291-.326-1.928-1.056-3.476-1.147a14.037,14.037,0,0,1-2.68-.382c-2.658-.414-2.57,0-4.7-.689s-3.222-1.442-4.463-1.617-2.9-.865-3.648-.727,6.644,2.871,7.885,3.021,5.6.489,6.807,1.053,3.874,1.692,4.965,1.542,5.341-.9,6.431-1.692,6.644-3.81,6.644-3.81" transform="translate(-142.479 -477.895)" fill="#2e383b"/>
      <path id="Path_247" data-name="Path 247" d="M304.674,337.639a5.978,5.978,0,0,1,.652-3.323c.552-1.14,2.608-1.591,3.009-1.24a2.916,2.916,0,0,1,1.1,2.224,3.647,3.647,0,0,1-1.3,2.741c-1.053.953-2.056.6-2.407,1.956s.2,2.457-1.053,3.811-2.959,1.354-3.31,2.457-1.851,2.658-2,4.112-1.106,2.712-1.206,3.939S297.2,356.444,297,357.5s-.9,1.4-.752,2.106,1.053,1.153,1.153,2.357a7.413,7.413,0,0,1-.2,2.909,12.431,12.431,0,0,0-.351,4.363,16.254,16.254,0,0,1,.351,4.563c-.251,1.254-1,2.507-.351,3.811s2.608,2.106,2.858,2.959-.552,1.153.3,1.5a2.328,2.328,0,0,1,1.4,1.554c.151.552-.8.552.4.953a18.145,18.145,0,0,1,3.109.9c1.554.7,1.3.752,1.354,1s-1.254-.1-1.7,0-2.558-.251-3.31-.151a4.545,4.545,0,0,1-2.908-.251c-.852-.552-.552.1-1.6-1s-.7-2.758-1.956-3.861-2.056-2.156-2.959-2.407-2.407-.251-2.608-.8a.931.931,0,0,1,.652-1.2,9.058,9.058,0,0,1,3.007.652c.6.4,1.066-.852,1.01-1.454a25.572,25.572,0,0,1-.207-3.109c.05-.9.351-4.312.5-4.965s.4-2.557.552-3.159.7-2.858.2-3.41-1.053-.4-1.655.251a12.471,12.471,0,0,1-2.64,2.257c-.57.2-3.478,2.347-3.93,2.227a9.549,9.549,0,0,0-3.015.431c-.394.2-3.253.953-3.8,1.5a1.294,1.294,0,0,0,0,2.056,8.142,8.142,0,0,1,2.056,1.805c.852,1.1,2.139,3.073,2.482,3.611a10.448,10.448,0,0,1,.527,3.009c.05.6.451,2.206-.1,2.407s-.716.6-1.16.1-2.952-7.923-3.8-8.976a10.592,10.592,0,0,0-1.932-2.156c-.425-.2-1.428-.251-1.628-.8s-.6-1-.251-1.3.5-.2,1.354-.552,5.2-1.6,6.262-2.457,4.721-2.457,5.473-3.51,2.006-1.354,3.009-2.959,1.115-1.906,1.711-2.257a8.774,8.774,0,0,0,2.042-3.365c.108-.7,1.462-2.228,1.613-3.167a15.969,15.969,0,0,1,1.808-3.9c.349-.451.982-2.106,1.593-2.808s1.514-2.557,2.065-3.059a6.408,6.408,0,0,0,1.354-1.554Z" transform="translate(-224.869 -304.141)" fill="#2e383b"/>
    </g>
  </g>
</svg>
