<svg xmlns="http://www.w3.org/2000/svg" width="334.957" height="344.109" viewBox="0 0 334.957 344.109">
  <g id="Group_144" data-name="Group 144" transform="translate(-795 -1662.005)">
    <path id="XMLID_482_" d="M115.6,278.4q8.925,7.836,18.41,16.2l.131.115,21.018,18.155a15,15,0,0,0,19.613,0l21.014-18.155.13-.114c41.607-36.8,72.8-64.966,95.371-92.44,26.36-32.088,38.638-61.1,38.638-91.305,0-54.646-42.8-97.451-97.449-97.451a104.66,104.66,0,0,0-67.511,25.279A104.678,104.678,0,0,0,97.452,13.407C42.806,13.406,0,56.212,0,110.857,0,176.912,45.99,217.286,115.6,278.4Zm-10.64-143.435h40v-40h40v40h40v40h-40v40h-40v-40h-40v-40Z" transform="translate(795 1689.593)" fill="#1f5479"/>
    <g id="Group_143" data-name="Group 143">
      <path id="Path_334" data-name="Path 334" d="M17.721,214.291a17.721,17.721,0,1,1,17.721-17.721A17.742,17.742,0,0,1,17.721,214.291Zm0-31.416a13.694,13.694,0,1,0,13.694,13.694A13.71,13.71,0,0,0,17.721,182.875Z" transform="matrix(0.875, 0.485, -0.485, 0.875, 1138.592, 1509.584)" fill="#777b7f"/>
      <path id="Path_335" data-name="Path 335" d="M298.382,214.291A17.721,17.721,0,1,1,316.1,196.57,17.742,17.742,0,0,1,298.382,214.291Zm0-31.416a13.694,13.694,0,1,0,13.694,13.694A13.71,13.71,0,0,0,298.382,182.875Z" transform="matrix(0.875, 0.485, -0.485, 0.875, 940.194, 1399.61)" fill="#777b7f"/>
      <path id="Path_336" data-name="Path 336" d="M150.512,134.305a1.439,1.439,0,0,1-2.717.66l-10.875-21.1-10.825,16.892-2.42-1.551,10.7-16.7h-21.8l8.447,16.555-2.562,1.308-8.369-16.4-11.749,18.2-2.416-1.559,12.655-19.6-3.624-7.1,2.562-1.308,3.588,7.034h23.631l-2.947-5.72a1.438,1.438,0,0,1,.349-1.758,1.482,1.482,0,0,1,.965-.339h9.132l1.358.1a4.56,4.56,0,0,1,4.645,4.427,4.694,4.694,0,0,1-4.712,4.685H141.94a1.438,1.438,0,1,1,0-2.876h1.691a1.731,1.731,0,0,0,1.726-1.849,1.855,1.855,0,0,0-1.782-1.712l-1.34.1h-6.808l14.923,28.958A1.421,1.421,0,0,1,150.512,134.305Z" transform="matrix(0.875, 0.485, -0.485, 0.875, 1040.597, 1526.452)" fill="#45678a"/>
      <path id="Path_337" data-name="Path 337" d="M132.167,104.693H121.6a1.438,1.438,0,0,1,0-2.876h10.563a1.438,1.438,0,1,1,0,2.876Z" transform="matrix(0.875, 0.485, -0.485, 0.875, 1023.463, 1516.951)" fill="#f6ae2d"/>
      <path id="Path_338" data-name="Path 338" d="M86.349,241.443a1.438,1.438,0,0,1-.089-2.874l26.83-1.682a1.438,1.438,0,1,1,.18,2.871L86.44,241.44Z" transform="matrix(0.875, 0.485, -0.485, 0.875, 1101.309, 1435.286)" fill="#2e383b"/>
      <path id="Path_339" data-name="Path 339" d="M113.182,286.425l-.091,0L86.26,284.74a1.438,1.438,0,1,1,.18-2.871l26.83,1.682a1.438,1.438,0,0,1-.089,2.874Z" transform="matrix(0.875, 0.485, -0.485, 0.875, 1118.935, 1403.488)" fill="#2e383b"/>
      <path id="Path_340" data-name="Path 340" d="M335.993,106.348a4.773,4.773,0,0,1-4.777,4.712H329.66a1.435,1.435,0,0,1-1.016-.42,1.539,1.539,0,0,1-.44-1.055,1.507,1.507,0,0,1,1.494-1.46h1.691a1.619,1.619,0,0,0,1.641-1.792,1.741,1.741,0,0,0-1.725-1.644h-1.335v-2.876h1.4A4.567,4.567,0,0,1,335.993,106.348Z" transform="matrix(0.875, 0.485, -0.485, 0.875, 876.399, 1435.437)" fill="#f6ae2d"/>
      <path id="Path_341" data-name="Path 341" d="M204.538,250.069a6.592,6.592,0,1,1,6.592-6.592A6.6,6.6,0,0,1,204.538,250.069Zm0-10.308a3.716,3.716,0,1,0,3.716,3.716A3.72,3.72,0,0,0,204.538,239.761Z" transform="matrix(0.875, 0.485, -0.485, 0.875, 1021.406, 1390.994)" fill="#f6ae2d"/>
      <path id="Path_342" data-name="Path 342" d="M71.719,255.477a4.91,4.91,0,1,1,4.91-4.91A4.916,4.916,0,0,1,71.719,255.477Zm0-6.943a2.033,2.033,0,1,0,2.033,2.033A2.036,2.036,0,0,0,71.719,248.533Z" transform="matrix(0.875, 0.485, -0.485, 0.875, 1117.544, 1436.178)" fill="#f6ae2d"/>
    </g>
    <path id="Path_343" data-name="Path 343" d="M213.247,274.753a1.439,1.439,0,0,1-1.375-1.861l2.495-8.121a1.438,1.438,0,1,1,2.75.844l-2.5,8.122A1.439,1.439,0,0,1,213.247,274.753Z" transform="matrix(0.875, 0.485, -0.485, 0.875, 1022.136, 1366.568)" fill="#45678a"/>
  </g>
</svg>
