<svg xmlns="http://www.w3.org/2000/svg" width="334.25" height="302.51" viewBox="0 0 334.25 302.51">
  <g id="Group_173" data-name="Group 173" transform="translate(-1303.071 -1703.432)">
    <g id="money-piggy-bank-front-with-dollar-sign-svgrepo-com" transform="translate(1349.366 1703.433)">
      <path id="Path_360" data-name="Path 360" d="M245.042,252.211A143.213,143.213,0,0,0,258.317,62.746C280.175,38.47,278.451.034,278.451.034S237.5-1.857,213.4,22.227a14.337,14.337,0,0,0-1.053,1.173,143.722,143.722,0,0,0-136.137,0c-.359-.4-.67-.79-1.041-1.173C51.1-1.857,10.138.046,10.138.046S8.415,38.482,30.26,62.758A143.234,143.234,0,0,0,43.547,252.223a26.867,26.867,0,1,0,39.705,27.591,142.646,142.646,0,0,0,122.072,0,26.885,26.885,0,1,0,39.717-27.6ZM100.418,60.112H188.2v11.97H100.418ZM75.484,130.438A14.221,14.221,0,1,1,89.7,144.658,14.222,14.222,0,0,1,75.484,130.438Zm68.829,127.184a52.37,52.37,0,1,1,52.37-52.37A52.374,52.374,0,0,1,144.313,257.621Zm54.6-112.975a14.221,14.221,0,1,1,14.221-14.221A14.238,14.238,0,0,1,198.909,144.646Zm-50.383,35.145v18.841l2.825.12q14.2.772,19.164,4.932t4.98,15.262c0,7.936-1.784,13.538-5.423,16.722-3.6,3.208-9.887,4.8-18.9,4.8l-2.621.048v8.439h-8.583v-8.439l-2.406-.048q-13.449,0-18.925-4.632c-3.651-3.064-5.47-8.391-5.47-16.016l.06-2.574h12.712v1.3c0,4.632.754,7.649,2.226,8.978s4.776,2.035,9.923,2.035l1.879.048V209.178q-15.029,0-20.517-4.321-5.494-4.363-5.506-16.268c0-7.721,1.843-12.976,5.53-15.825q5.53-4.22,20.493-4.237v-7.3h8.583v7.3q14.292,0,19.535,4.082c3.507,2.717,5.243,7.769,5.243,15.178v1.748H161.047L161,188.158c0-5.59-3.483-8.367-10.474-8.367h-2Zm-8.583-.048-1.831.048c-7.553,0-11.3,2.993-11.3,8.954,0,6.236,3.747,9.373,11.252,9.373.072,0,.694.024,1.879.1v-18.47Zm8.583,49.94h1.819c8.176,0,12.258-3.531,12.258-10.522,0-3.854-.9-6.38-2.741-7.6-1.8-1.233-5.6-1.819-11.372-1.819l.036,19.942Z" transform="translate(0 0)" fill="#5f6f56"/>
    </g>
    <g id="bicycle-svgrepo-com" transform="translate(1200.132 1812.604) rotate(-74)">
      <path id="Path_334" data-name="Path 334" d="M17.721,214.291a17.721,17.721,0,1,1,17.721-17.721A17.742,17.742,0,0,1,17.721,214.291Zm0-31.416a13.694,13.694,0,1,0,13.694,13.694A13.71,13.71,0,0,0,17.721,182.875Z" transform="translate(0 -62.263)" fill="#777b7f"/>
      <path id="Path_335" data-name="Path 335" d="M298.382,214.291A17.721,17.721,0,1,1,316.1,196.57,17.742,17.742,0,0,1,298.382,214.291Zm0-31.416a13.694,13.694,0,1,0,13.694,13.694A13.71,13.71,0,0,0,298.382,182.875Z" transform="translate(-226.84 -62.263)" fill="#777b7f"/>
      <path id="Path_336" data-name="Path 336" d="M150.512,134.305a1.439,1.439,0,0,1-2.717.66l-10.875-21.1-10.825,16.892-2.42-1.551,10.7-16.7h-21.8l8.447,16.555-2.562,1.308-8.369-16.4-11.749,18.2-2.416-1.559,12.655-19.6-3.624-7.1,2.562-1.308,3.588,7.034h23.631l-2.947-5.72a1.438,1.438,0,0,1,.349-1.758,1.482,1.482,0,0,1,.965-.339h9.132l1.358.1a4.56,4.56,0,0,1,4.645,4.427,4.694,4.694,0,0,1-4.712,4.685H141.94a1.438,1.438,0,1,1,0-2.876h1.691a1.731,1.731,0,0,0,1.726-1.849,1.855,1.855,0,0,0-1.782-1.712l-1.34.1h-6.808l14.923,28.958A1.421,1.421,0,0,1,150.512,134.305Z" transform="translate(-77.531 -0.001)" fill="#45678a"/>
      <path id="Path_337" data-name="Path 337" d="M132.167,104.693H121.6a1.438,1.438,0,0,1,0-2.876h10.563a1.438,1.438,0,1,1,0,2.876Z" transform="translate(-97.122 -0.004)" fill="#f6ae2d"/>
      <path id="Path_338" data-name="Path 338" d="M86.349,241.443a1.438,1.438,0,0,1-.089-2.874l26.83-1.682a1.438,1.438,0,1,1,.18,2.871L86.44,241.44Z" transform="translate(-68.629 -109.17)" fill="#2e383b"/>
      <path id="Path_339" data-name="Path 339" d="M113.182,286.425l-.091,0L86.26,284.74a1.438,1.438,0,1,1,.18-2.871l26.83,1.682a1.438,1.438,0,0,1-.089,2.874Z" transform="translate(-68.629 -145.526)" fill="#2e383b"/>
      <path id="Path_340" data-name="Path 340" d="M335.993,106.348a4.773,4.773,0,0,1-4.777,4.712H329.66a1.435,1.435,0,0,1-1.016-.42,1.539,1.539,0,0,1-.44-1.055,1.507,1.507,0,0,1,1.494-1.46h1.691a1.619,1.619,0,0,0,1.641-1.792,1.741,1.741,0,0,0-1.725-1.644h-1.335v-2.876h1.4A4.567,4.567,0,0,1,335.993,106.348Z" transform="translate(-265.266)" fill="#f6ae2d"/>
      <path id="Path_341" data-name="Path 341" d="M204.538,250.069a6.592,6.592,0,1,1,6.592-6.592A6.6,6.6,0,0,1,204.538,250.069Zm0-10.308a3.716,3.716,0,1,0,3.716,3.716A3.72,3.72,0,0,0,204.538,239.761Z" transform="translate(-159.987 -109.171)" fill="#f6ae2d"/>
      <path id="Path_342" data-name="Path 342" d="M71.719,255.477a4.91,4.91,0,1,1,4.91-4.91A4.916,4.916,0,0,1,71.719,255.477Zm0-6.943a2.033,2.033,0,1,0,2.033,2.033A2.036,2.036,0,0,0,71.719,248.533Z" transform="translate(-53.997 -116.261)" fill="#f6ae2d"/>
      <path id="Path_343" data-name="Path 343" d="M213.247,274.753a1.439,1.439,0,0,1-1.375-1.861l2.495-8.121a1.438,1.438,0,1,1,2.75.844l-2.5,8.122A1.439,1.439,0,0,1,213.247,274.753Z" transform="translate(-171.19 -130.888)" fill="#45678a"/>
    </g>
  </g>
</svg>
